# xmcd
#
# Track frame offsets:
#	150
#	11932
#	26929
#	50846
#	63561
#	85973
#	104204
#	120145
#	146592
#
# Disc length: 2340 seconds
# Revision: 0
# Processed by: cddbd v1.5.2PL0 Copyright (c) Steve Scherf et al.
# Submitted via: dBpowerAMP V12.0
#
DISCID=85092209
DTITLE=Roberto Ciotti - Super Gasoline Blues
DYEAR=1978
DGENRE=Blues
TTITLE0=Hell Boogie
TTITLE1=Fisherman
TTITLE2=Castles of Sand
TTITLE3=Bigroad Blues
TTITLE4=Trying
TTITLE5=When is My Time
TTITLE6=Need More
TTITLE7=Blues Plays Me
TTITLE8=Super Gasoline
EXTD=
EXTT0=
EXTT1=
EXTT2=
EXTT3=
EXTT4=
EXTT5=
EXTT6=
EXTT7=
EXTT8=
PLAYORDER=
